# xmcd CD database file
#
# Track frame offsets:
#	150
#	17952
#	37195
#	55877
#	74720
#	93945
#	111455
#	130660
#	153400
#	173662
#
# Disc length: 2654 seconds
#
# Revision: 0
# Processed by: cddbd v1.5.1PL0 Copyright (c) Steve Scherf et al.
# Submitted via: CDex 1.51
#
DISCID=8b0a5c0a
DTITLE=PERSONZ - Departure!
DYEAR=1999
DGENRE=Rock
TTITLE0=世界の終わりのフィルム
TTITLE1=Voyager
TTITLE2=Holyday
TTITLE3=見たこともない空の下で
TTITLE4=ひまわり
TTITLE5=Mother's Eyes
TTITLE6=Cafe De "F"
TTITLE7=Stranger
TTITLE8=世界漂流
TTITLE9=君がいた夏
EXTD=YEAR: 1999
EXTT0=
EXTT1=
EXTT2=
EXTT3=
EXTT4=
EXTT5=
EXTT6=
EXTT7=
EXTT8=
EXTT9=
PLAYORDER=
